<?xml version="1.0" encoding="utf-8"?>
<!-- Generator: Adobe Illustrator 26.0.2, SVG Export Plug-In . SVG Version: 6.00 Build 0)  -->
<svg version="1.1" id="Layer_1" xmlns="http://www.w3.org/2000/svg" xmlns:xlink="http://www.w3.org/1999/xlink" x="0px" y="0px"
	 viewBox="0 0 1280 322" style="enable-background:new 0 0 1280 322;" xml:space="preserve">
<style type="text/css">
	.st0{fill:#FFFFFF;}
</style>
<g>
	<path class="st0" d="M326.4,259.7c1.7-21.1,2.8-38.2,3.4-51.3c0.6-13.1,1.4-38.3,2.5-75.7c1-37.3,1.5-60.6,1.5-69.9l-0.2-14.6
		c13.9,0.1,24.7,0.2,32.2,0.2c6.1,0,14.3-0.2,24.5-0.4c10.3-0.2,18.1-0.4,23.6-0.4c11.4,0,20,0.5,25.9,1.6
		c5.9,1.1,11.2,2.9,15.9,5.3c4.6,2.5,8.6,5.6,11.8,9.3c3.2,3.8,5.8,8.4,7.8,14c2,5.6,3,11.7,3,18.4c0,5.3-0.6,10.3-1.9,15.3
		c-1.3,4.9-3.2,9.5-5.9,13.8c-2.7,4.3-5.8,8-9.2,11.1c-3.5,3.1-6.8,5.5-10,7.2s-7.4,3.6-12.7,5.6c5.3,1.3,9.5,2.6,12.6,3.8
		c3.1,1.2,6.3,2.9,9.5,4.9s6.1,4.6,8.9,7.6c2.8,3,5,6.3,6.7,9.7s3,7.3,4,11.7s1.4,8.9,1.5,13.6c0,6.6-0.9,12.9-2.9,18.9
		s-4.8,11.4-8.4,16.1c-3.7,4.7-8.1,8.7-13.1,11.8c-5,3.2-10,5.6-15,7.2c-5,1.6-11.5,2.8-19.6,3.6c-8.1,0.8-18.9,1.2-32.4,1.2
		l-39.5,0L326.4,259.7z M356,240.1l40.2-0.2c11.3-0.1,19.7-0.7,25.2-2c5.5-1.3,10.8-3.5,16-6.7c5.2-3.2,9.3-7.9,12.3-14.1
		c3-6.3,4.4-12.9,4.4-19.9c0-5.8-1.1-11-3.2-15.6c-2.1-4.6-5.2-8.6-9.3-12s-8.9-5.8-14.4-7.4c-5.5-1.5-13.5-2.3-24-2.2l-44.9,0.2
		L356,240.1z M359.2,140.8l28-0.1c12.6-0.1,21.1-0.4,25.7-1s9.5-1.9,14.8-4.1c5.3-2.1,9.7-5.3,13.1-9.3c3.4-4.1,5.9-8.6,7.5-13.3
		c1.6-4.8,2.4-9.6,2.3-14.5c0-5.2-0.9-9.7-2.6-13.6c-1.7-3.9-4.3-7.3-7.7-10c-3.4-2.8-7.4-4.8-12-6c-4.6-1.2-11.6-1.8-21-1.8
		l-45.7,0.2L359.2,140.8z"/>
	<path class="st0" d="M513.5,258.9c3.4-59.6,5.1-107.1,4.9-142.7l-0.2-14.2c5.3,0.1,9.6,0.1,13,0.1c3.9,0,8.3-0.1,13.2-0.2
		l-1.1,25.7c3.8-6.4,7.2-11.3,10.1-14.5s6.2-6,10-8.1s7.9-3.8,12.6-5s9.6-1.8,14.6-1.8c4.3,0,8.6,0.5,12.9,1.5
		c0.1,6.8,0.5,14.4,1.2,22.9c-6.4-1.7-12.1-2.6-17.2-2.6c-6.1,0-11.6,1.1-16.4,3.1s-9.2,5.1-13,9.2s-7,9-9.5,14.7
		c-2,4.6-3.6,10.4-4.6,17.7s-1.8,20.4-2.4,39.5c-0.3,13.9-0.5,28.7-0.4,44.3l0,10.4c-5.6-0.2-10.1-0.3-13.5-0.2
		C524.5,258.5,519.8,258.6,513.5,258.9z"/>
	<path class="st0" d="M753.1,233.1c-1.2,5.7-2.4,12.9-3.6,21.7c-9.9,2.5-18.5,4.2-25.8,5.1c-7.3,0.9-14.5,1.4-21.8,1.4
		c-12.9,0.1-24.5-1.4-34.8-4.5c-10.3-3.1-19.1-8.4-26.5-16.1c-7.4-7.7-12.7-16.4-15.9-26.3c-3.2-9.9-4.9-20.4-5-31.4
		c-0.1-15.4,2.8-29.7,8.6-42.9c5.8-13.2,14.6-23.6,26.4-31.2c11.8-7.6,26.8-11.4,44.9-11.5c9.4,0,18.4,1.3,27,4
		c8.6,2.7,15.7,6.8,21.4,12.4c5.7,5.6,10.1,12.4,13.3,20.6s4.7,17.1,4.8,26.9c0,3.7-0.3,7.3-0.9,10.9l-118.2,0.6
		c-0.4,5.7-0.6,10-0.6,13c0,10.8,2.4,20.8,7,29.9c4.6,9.1,11.3,16,20.2,20.7c8.9,4.7,19.1,7,30.7,6.9
		C717.8,243.2,734,239.8,753.1,233.1z M648.3,159.9l92.3-0.4c-0.1-6.5-0.6-11.6-1.3-15.2s-2.1-7.4-4.1-11.2c-2-3.9-4.7-7.2-8-10
		c-3.4-2.8-7.4-5-12.1-6.4c-4.7-1.5-9.8-2.2-15.3-2.2c-5.9,0-11.5,0.9-16.8,2.6s-10,4-14.1,6.9c-4.1,2.9-7.5,6.3-10.3,10.2
		c-2.8,3.9-4.9,7.6-6.3,11.3C651,148.9,649.7,153.8,648.3,159.9z"/>
	<path class="st0" d="M921.4,232.3c-1.2,5.7-2.4,12.9-3.6,21.7c-9.9,2.5-18.5,4.2-25.8,5.2c-7.3,0.9-14.5,1.4-21.8,1.4
		c-12.9,0.1-24.5-1.4-34.8-4.5c-10.3-3.1-19.1-8.4-26.5-16.1s-12.7-16.4-15.9-26.3c-3.2-9.9-4.9-20.4-5-31.4
		c-0.1-15.4,2.8-29.7,8.6-42.9c5.8-13.2,14.6-23.6,26.4-31.2c11.8-7.6,26.8-11.4,44.9-11.5c9.4,0,18.4,1.3,27,4
		c8.6,2.7,15.7,6.8,21.4,12.4c5.7,5.6,10.1,12.4,13.3,20.6s4.7,17.1,4.8,26.9c0,3.7-0.3,7.3-0.9,10.9L815.5,172
		c-0.4,5.7-0.6,10-0.6,13c0,10.8,2.4,20.8,7,29.9c4.6,9.1,11.3,16,20.2,20.7c8.9,4.7,19.1,7,30.7,6.9
		C886.2,242.4,902.4,239,921.4,232.3z M816.7,159.1l92.3-0.4c-0.1-6.5-0.6-11.6-1.3-15.2s-2.1-7.4-4.1-11.2c-2-3.9-4.7-7.2-8-10
		c-3.4-2.8-7.4-5-12.1-6.4c-4.7-1.5-9.8-2.2-15.3-2.2c-5.9,0-11.5,0.9-16.8,2.6s-10,4-14.1,6.9c-4.1,2.9-7.5,6.3-10.3,10.2
		c-2.8,3.9-4.9,7.6-6.3,11.3C819.4,148.1,818,153,816.7,159.1z"/>
	<path class="st0" d="M950.7,256.8c0.4-6.5,0.6-14.2,0.7-23.2l8-9.5c1.6-1.9,3.2-3.7,4.6-5.6l80.1-100.3c-9.5-0.1-19.5-0.1-30.1,0
		c-16.6,0.1-34.4,0.7-53.3,1.9c0.5-6.9,0.7-13.7,0.7-20.3c17,0,36.3,0,57.9-0.1c19.5-0.1,37.5-0.2,53.9-0.4
		c-0.3,3.9-0.5,8.1-0.6,12.6l-0.4,11.6c-3.9,4.6-7.7,9.1-11.2,13.7l-80.8,100.3c10,0.4,19.8,0.5,29.3,0.5
		c24.9-0.1,44.3-0.7,58.4-1.8c-0.7,5.6-1.1,12.3-1.3,20.1c-16.9-0.1-35.5-0.1-55.6,0C986,256.3,965.9,256.5,950.7,256.8z"/>
	<path class="st0" d="M1230.6,230.9c-1.2,5.7-2.4,12.9-3.6,21.7c-9.9,2.5-18.5,4.2-25.8,5.1s-14.5,1.4-21.8,1.4
		c-12.9,0.1-24.5-1.4-34.8-4.5c-10.3-3.1-19.1-8.4-26.5-16.1c-7.4-7.7-12.7-16.4-15.9-26.3c-3.2-9.9-4.9-20.4-4.9-31.4
		c-0.1-15.4,2.8-29.7,8.6-42.9c5.8-13.2,14.6-23.6,26.4-31.2c11.8-7.6,26.8-11.4,44.9-11.5c9.4,0,18.4,1.3,27,4
		c8.6,2.7,15.7,6.8,21.4,12.4c5.7,5.6,10.1,12.4,13.3,20.6c3.1,8.2,4.7,17.1,4.8,26.9c0,3.7-0.3,7.3-0.9,10.9l-118.2,0.6
		c-0.4,5.7-0.6,10-0.6,13c0.1,10.8,2.4,20.8,6.9,29.9s11.3,16,20.2,20.7s19.1,7,30.7,6.9C1195.3,241,1211.5,237.6,1230.6,230.9z
		 M1125.8,157.6l92.3-0.4c-0.1-6.5-0.6-11.6-1.3-15.2c-0.7-3.6-2.1-7.4-4.1-11.2s-4.7-7.2-8-10c-3.4-2.8-7.4-5-12.1-6.4
		c-4.7-1.5-9.8-2.2-15.3-2.2c-5.9,0-11.5,0.9-16.8,2.6s-10,4-14.1,6.9c-4.1,2.9-7.5,6.3-10.3,10.2c-2.8,3.9-4.9,7.6-6.3,11.3
		C1128.5,146.7,1127.1,151.6,1125.8,157.6z"/>
</g>
<g>
	<path class="st0" d="M266.4,112.9c14.2-14.2,18-39.2,8.7-57c-9.2-17.8-30-29.6-50-25.4c-19.4,3.4-34,21.7-33.4,41.3
		c0.5,17.1,14.2,33.8,32.3,33.3c14.3-0.4,27.5-9.4,28.4-24.8c0.5-7.6-2.5-15.3-8.7-19.8c-7.6-5.5-19.4-5.5-25.7,1.9
		c-5.9,6.9-5.4,18.8,3.4,23.1c7.2,3.5,17.2-1.8,15.4-10.2c0,1-0.2,2.4-0.3,2.6c-0.5,2.3-1.9,4.4-4.1,5.7c-4.4,2.6-10.7,0.8-13.4-3.5
		c-5.8-9.2,3.4-19.3,13.1-18c7.9,1,13,8.2,12.9,15.8C245,87,238,93.8,229.2,95.5c-14.1,2.7-25.6-9.3-26.6-22.7
		c-1.3-18.5,16.6-32.8,34.2-30.6c8.9,1.1,17,6.2,22.7,13c6.2,7.5,8.1,16.3,7.6,25.8c-0.6,9.8-4.4,19.2-12.2,25.5
		c-8,6.4-18.4,9.4-28.4,10.8c-11.5,1.6-23.3,1.3-34.9,1.6c-11.4,0.3-22.8,0.7-34.1,1.1c-40.4,1.3-80.8,3.2-121.2,5.9
		c56.4,2.6,113,3.7,169.5,3.8C226.8,129.8,250.5,128.6,266.4,112.9z"/>
	<path class="st0" d="M236.8,75.1c0-0.6-0.1-1-0.3-1.1C236.7,74.4,236.8,74.7,236.8,75.1z"/>
	<path class="st0" d="M272.2,142.9c18.4-9.6,30.5-27.2,34-47.5c3.4-19.8,0.1-40.5-13-56.1c-11.7-13.9-28.2-21.7-46.1-23.1
		c21,5.2,40.2,19.5,47.7,40.4c7.4,22.8,1.9,52.2-16.9,68.1c-16.6,14.1-38.6,15.6-59.4,15.6c-23.2,0-46.3-0.1-69.4,0.4
		c-37.6,0.9-75.4,2.3-112.8,5.9c62.2,5.2,125,5.8,187.4,6.3C240.3,153.1,257.4,150.6,272.2,142.9z"/>
	<path class="st0" d="M236.8,285.1c-0.1,0.3-0.1,0.6-0.2,1C236.7,286,236.8,285.6,236.8,285.1z"/>
	<path class="st0" d="M276.5,224.7c-8-20.9-29.3-29.8-50.2-31.9c-11.4-1.1-23.1-0.7-34.5-0.6c-11.4,0.1-22.8,0.2-34.1,0.4
		c-40.4,0.5-80.9,1.5-121.3,3.4c20.2,1.4,40.5,2.4,60.8,3.5c22.5,1.2,45,2,67.6,2.7c11.3,0.4,22.7,0.8,34,1
		c11.6,0.3,23.3,0.1,34.7,2.7c9.5,2.1,19.3,6,25.7,13.5c6.5,7.5,8.6,17.6,8.1,27.3c-0.9,18.1-16.9,34.2-35.5,33.3
		c-16.4-0.8-32.1-15.9-28.8-33.2c1.7-9,6.8-16.5,15.8-19.4c4.3-1.4,9.2-1.5,13.6-0.1c8.9,2.9,14.1,11.9,12.5,21
		c-1.4,7.9-9.4,13.2-17.3,11.8c-8.9-1.4-13.8-13.9-6.5-20.1c3.6-3.1,9.6-3.6,13.2-0.1c1.4,1.4,2.4,3.3,2.6,5.4
		c0,0.2,0.1,1.1,0.1,1.8c1-4.8-2-9.6-6.7-11c-6.4-1.9-13.2,2-15.2,8.2c-4.4,13.1,8.8,23.6,21.1,20.9c11.6-2.5,17.9-14.2,16.3-25.4
		c-1.7-11.6-10.5-19.6-21.6-22.1c-13.3-3.1-27.9,4.4-34.5,16c-9.9,17.5-2.8,40.3,13.3,51.4c17.3,11.9,40.1,8.5,55.2-5.3
		C279.8,265.7,283.8,243.7,276.5,224.7z"/>
	<path class="st0" d="M258.7,173.6c-13.8-4.1-27.7-4.6-41.9-4.5c-22.1,0.2-44.2,0.8-66.3,1.2c-38.1,0.8-76.3,1.9-114.2,5.1
		c46.7,4.6,93.9,6.1,140.7,6.4c11.6,0.1,23.1,0,34.7-0.1c10.9-0.1,22.1-0.6,32.8,1.4c19.9,3.6,38.1,13,47,32
		c8.2,17.7,9.4,41-0.4,58.3c-9.4,16.8-25.6,27.7-44,32.4c30.1-2.4,56.1-24.2,59.7-54.8c2-16.9-0.7-34.7-9.8-49.2
		C288.3,187.9,274.4,178.3,258.7,173.6z"/>
</g>
</svg>
