<?xml version="1.0" encoding="utf-8"?>
<!-- Generator: Adobe Illustrator 26.0.2, SVG Export Plug-In . SVG Version: 6.00 Build 0)  -->
<svg version="1.1" id="Layer_1" xmlns="http://www.w3.org/2000/svg" xmlns:xlink="http://www.w3.org/1999/xlink" x="0px" y="0px"
	 viewBox="0 0 512 512" style="enable-background:new 0 0 512 512;" xml:space="preserve">
<style type="text/css">
	.st0{fill:#FFFFFF;}
</style>
<g>
	<path class="st0" d="M405.2,180c22.5-22.4,28.4-61.9,13.8-90c-14.5-28-47.4-46.7-79.1-40.1c-30.7,5.4-53.7,34.2-52.8,65.2
		c0.8,27,22.4,53.3,51,52.5c22.7-0.6,43.4-14.9,44.9-39.2c0.7-12-3.9-24.1-13.7-31.4c-11.9-8.8-30.6-8.7-40.7,3
		c-9.4,10.8-8.5,29.8,5.4,36.4c11.4,5.5,27.1-2.8,24.3-16.1c0,1.6-0.4,3.8-0.5,4.2c-0.9,3.7-3.1,7-6.4,8.9c-7,4.1-17,1.3-21.2-5.5
		c-9.1-14.6,5.5-30.5,20.7-28.5c12.5,1.7,20.6,12.9,20.4,25c-0.2,14.6-11.2,25.4-25.1,28.1c-22.4,4.2-40.4-14.7-41.9-35.9
		c-2.1-29.2,26.2-51.8,54-48.3c14,1.8,26.9,9.8,35.8,20.6c9.7,11.8,12.9,25.8,12,40.8c-0.9,15.6-6.9,30.4-19.2,40.3
		c-12.6,10.2-29.1,14.8-44.9,17c-18.2,2.6-36.8,2.1-55.1,2.6c-18,0.5-36,1.1-53.9,1.7c-63.9,2.1-127.7,5.1-191.5,9.4
		c89.2,4.1,178.5,5.9,267.7,6.1C342.7,206.7,380.2,204.9,405.2,180z"/>
	<path class="st0" d="M358.6,120.3c0-0.9-0.1-1.6-0.4-1.7C358.3,119.1,358.4,119.7,358.6,120.3z"/>
	<path class="st0" d="M414.5,227.4c29-15.1,48.2-42.9,53.7-75.1c5.4-31.3,0.2-64.1-20.6-88.7c-18.5-21.9-44.5-34.2-72.9-36.5
		c33.2,8.3,63.5,30.7,75.4,63.8c11.8,36.1,3,82.4-26.6,107.6c-26.3,22.3-60.9,24.7-93.9,24.7c-36.6,0-73.1-0.1-109.7,0.7
		c-59.4,1.4-119,3.6-178.2,9.4c98.3,8.2,197.4,9.1,296,10C364,243.5,391,239.6,414.5,227.4z"/>
	<path class="st0" d="M358.5,452.1c-0.1,0.5-0.1,1-0.3,1.5C358.4,453.5,358.4,452.8,358.5,452.1z"/>
	<path class="st0" d="M421.2,356.6c-12.7-33-46.3-47-79.3-50.3c-18.1-1.8-36.4-1-54.5-0.9c-18,0.1-36,0.4-54,0.6
		c-63.9,0.7-127.8,2.4-191.6,5.4c32,2.2,64,3.8,96,5.5c35.6,1.8,71.1,3.2,106.7,4.2c17.9,0.6,35.8,1.2,53.7,1.6
		c18.3,0.5,36.8,0.2,54.8,4.2c15,3.3,30.4,9.5,40.7,21.3c10.3,11.9,13.6,27.8,12.9,43.2c-1.5,28.6-26.6,54-56,52.5
		c-25.9-1.2-50.7-25.2-45.5-52.5c2.7-14.2,10.7-26.1,25-30.7c6.8-2.2,14.6-2.4,21.4-0.2c14.1,4.5,22.3,18.8,19.7,33.2
		c-2.3,12.6-14.9,20.9-27.4,18.6c-14-2.1-21.8-21.9-10.3-31.7c5.8-4.9,15.2-5.6,20.9-0.1c2.3,2.2,3.7,5.3,4.1,8.5
		c0,0.3,0.1,1.7,0.1,2.9c1.6-7.6-3.2-15.2-10.6-17.4c-10.1-3-20.8,3.2-24.1,13c-6.9,20.7,14,37.3,33.4,33
		c18.3-4,28.3-22.4,25.7-40.2c-2.7-18.4-16.6-30.9-34.1-35c-21-4.9-44,6.9-54.4,25.3c-15.7,27.7-4.4,63.7,21,81.1
		c27.3,18.7,63.4,13.5,87.3-8.4C426.5,421.4,432.8,386.7,421.2,356.6z"/>
	<path class="st0" d="M393.1,275.9c-21.7-6.5-43.7-7.3-66.1-7.1c-34.9,0.3-69.8,1.2-104.8,1.9c-60.1,1.2-120.5,3-180.4,8
		c73.7,7.2,148.3,9.6,222.3,10.1c18.3,0.1,36.5,0,54.8-0.1c17.2-0.1,34.9-0.9,51.8,2.2c31.4,5.6,60.2,20.6,74.2,50.6
		c13,27.9,14.8,64.8-0.6,92.2c-14.9,26.5-40.4,43.8-69.5,51.1c47.5-3.8,88.6-38.2,94.3-86.6c3.2-26.6-1.1-54.8-15.5-77.8
		C439.8,298.4,417.9,283.3,393.1,275.9z"/>
</g>
</svg>
